/* XPM */
static char *key[] = {
"16 16 3 1 ",
"  c None",
"X c #eeeeee",
"# c #ffffff",
"        #       ",
" #     #      # ",
"  #          #  ",
"     X####X     ",
"    ########    ",
"   X#X    X#X   ",
"   ##      ##   ",
"#  ##      ## # ",
" # ##      ##  #",
"   ##      ##   ",
"   X#X    X#X   ",
"    ########    ",
"     X####X     ",
"  #          #  ",
" #      #     # ",
"       #        "};
