/* XPM */
static char *key[] = {
"16 16 3 1 ",
"  c None",
"# c #ffffff",
"- c #efefef",
"                ",
"       ##       ",
"      #-##      ",
"     #--#-#     ",
"    #--#---#    ",
"   ##--#----#   ",
"   #-###--###   ",
"   #---###--#   ",
"   #--###---#   ",
"   ###--###-#   ",
"   #----#--##   ",
"    #---#--#    ",
"     #-#--#     ",
"      ##-#      ",
"       ##       ",
"                "};
