/* XPM */
static char *key[] = {
"16 16 4 1 ",
"  c None",
"# c #ffffff",
"- c #f7f7f7",
"* c #efefef",
"        #       ",
"       #        ",
"                ",
"     -####-     ",
"    ##****##    ",
"   -#*    *#-   ",
"   #*      *#   ",
"#  #*      *# # ",
" # #*      *#  #",
"   #*      *#   ",
"   -#*    *#-   ",
"    ##****##    ",
"     -####-     ",
"                ",
"        #       ",
"       #        "};
