/* XPM */
static char *key[] = {
"16 16 8 1 ",
"  c None",
"- c #f7f7f7",
"1 c #ffffff",
"2 c #efefef",
"3 c #e7e7e7",
"4 c #dfdfdf",
"5 c #d7d7d7",
"6 c #dfdfdf",
"                ",
"                ",
"      6666      ",
"    65555556    ",
"   65-4444-56   ",
"   5-433334-5   ",
"  654322223456  ",
"  654321123456  ",
"  654321123456  ",
"  654322223456  ",
"   5-433334-5   ",
"   65-4444-56   ",
"    65555556    ",
"      6666      ",
"                ",
"                "};
