/* XPM */
static char *node[] = {
"16 16 3 1 ",
"  c #303030",
"# c #141414",
"- c #0a0a0a",
"                ",
"                ",
"                ",
"     #    #     ",
"    ##    ##    ",
"   ##-    -##   ",
"                ",
"                ",
"                ",
"                ",
"   ##-    -##   ",
"    ##    ##    ",
"     #    #     ",
"                ",
"                ",
"                "};
