/* XPM */
static char *node[] = {
"16 16 3 1 ",
"  c #303030",
"# c #1e1e1e",
"- c #141414",
"                ",
"                ",
"                ",
"                ",
"      #  #      ",
"     ##  ##     ",
"    ##-  -##    ",
"                ",
"                ",
"    ##-  -##    ",
"     ##  ##     ",
"      #  #      ",
"                ",
"                ",
"                ",
"                "};
